<svg width="1487" height="1110" viewBox="0 0 1487 1110" fill="none" xmlns="http://www.w3.org/2000/svg">
<path d="M1207.37 1H135.722L1 224.254L493.959 240.791L509.268 1007.02L539.887 1031.83V199.448C390.876 193.935 90.4062 182.91 80.6082 182.91C70.8103 182.91 133.68 91.0365 166.34 45.0995H1247.18L1207.37 1Z" fill="#1595B6"/>
<path d="M1486 149.836L711.351 136.055V182.91H1403.33L1326.78 315.209L680.732 298.672V1109L888.938 998.751L898.124 428.214H852.196V968.433L717.474 1042.85L729.722 345.527H1354.34L1486 149.836Z" fill="#1595B6"/>
<path d="M1207.37 1H135.722L1 224.254L493.959 240.791L509.268 1007.02L539.887 1031.83V199.448C390.876 193.935 90.4062 182.91 80.6082 182.91C70.8103 182.91 133.68 91.0365 166.34 45.0995H1247.18L1207.37 1Z" stroke="#3198EC"/>
<path d="M1207.37 1H135.722L1 224.254L493.959 240.791L509.268 1007.02L539.887 1031.83V199.448C390.876 193.935 90.4062 182.91 80.6082 182.91C70.8103 182.91 133.68 91.0365 166.34 45.0995H1247.18L1207.37 1Z" stroke="black" stroke-opacity="0.2"/>
<path d="M1486 149.836L711.351 136.055V182.91H1403.33L1326.78 315.209L680.732 298.672V1109L888.938 998.751L898.124 428.214H852.196V968.433L717.474 1042.85L729.722 345.527H1354.34L1486 149.836Z" stroke="#3198EC"/>
<path d="M1486 149.836L711.351 136.055V182.91H1403.33L1326.78 315.209L680.732 298.672V1109L888.938 998.751L898.124 428.214H852.196V968.433L717.474 1042.85L729.722 345.527H1354.34L1486 149.836Z" stroke="black" stroke-opacity="0.2"/>
</svg>
